<?xml version="1.0" encoding="UTF-8"?>
<svg version="1.1" xmlns="http://www.w3.org/2000/svg" width="630" height="284">
<path d="M0 0 C207.9 0 415.8 0 630 0 C630 93.72 630 187.44 630 284 C422.1 284 214.2 284 0 284 C0 190.28 0 96.56 0 0 Z " fill="#FEFEFE" transform="translate(0,0)"/>
<path d="M0 0 C2.33301314 1.12294408 3.40430109 2.37567274 5.0078125 4.40625 C8.58260238 8.7193117 12.58871583 12.29421886 16.84375 15.92578125 C18.8828125 17.90625 18.8828125 17.90625 19.8828125 20.90625 C19.08617187 21.22078125 18.28953125 21.5353125 17.46875 21.859375 C6.36482337 26.34417262 -2.36622281 31.38284216 -7.4921875 42.65625 C-11.30516135 51.87369982 -11.71054202 63.25589843 -8.6171875 72.78125 C-3.8664117 83.86639353 4.04451592 90.24287683 14.3828125 95.78125 C23.57221889 98.86283809 35.31500196 98.06184032 44 93.9765625 C45.67144317 93.02640601 47.28308472 91.97273519 48.8828125 90.90625 C49.8728125 90.90625 50.8628125 90.90625 51.8828125 90.90625 C47.07321072 85.26057482 42.03558551 79.93467224 36.76171875 74.72265625 C36.01695786 73.98168198 35.27219696 73.2407077 34.50486755 72.47727966 C32.15411887 70.13863559 29.80012695 67.80329968 27.4453125 65.46875 C24.31878825 62.3687137 21.19552326 59.26544697 18.07421875 56.16015625 C17.35246964 55.44670547 16.63072052 54.7332547 15.88710022 53.9981842 C15.22898849 53.3433757 14.57087677 52.6885672 13.89282227 52.01391602 C13.30992935 51.43625992 12.72703644 50.85860382 12.1264801 50.26344299 C10.8828125 48.90625 10.8828125 48.90625 10.8828125 47.90625 C23.8233911 45.20162746 39.72985873 42.48055591 51.65924072 49.55206299 C58.54473226 54.53310531 64.48717491 60.43984782 70.3203125 66.59375 C71.58902191 67.92505951 71.58902191 67.92505951 72.88336182 69.28326416 C75.29704229 71.85770344 77.66347312 74.46436693 80.00390625 77.10546875 C80.71972366 77.91105728 81.43554108 78.71664581 82.17304993 79.54664612 C83.13237679 80.68697548 83.13237679 80.68697548 84.11108398 81.8503418 C84.67375473 82.51430466 85.23642548 83.17826752 85.81614685 83.86235046 C86.8828125 85.90625 86.8828125 85.90625 86.66297913 88.4778595 C83.08219383 99.62361314 69.89273978 111.51303107 59.8828125 116.90625 C54.99137428 119.21049242 49.97741842 121.10442892 44.8828125 122.90625 C44.16480469 123.17566406 43.44679688 123.44507813 42.70703125 123.72265625 C29.27718303 127.98090081 11.16443145 125.03741927 -1.1171875 118.90625 C-19.28288639 109.08550289 -30.70279626 94.92495381 -36.65917969 75.10253906 C-40.32487285 57.52440704 -37.81096102 38.52932933 -28.2421875 23.46875 C-26.8952519 21.59409709 -25.52201118 19.73792395 -24.1171875 17.90625 C-23.55 17.15601562 -22.9828125 16.40578125 -22.3984375 15.6328125 C-18.06628311 10.29935828 -12.89057067 6.57262677 -7.1171875 2.90625 C-6.27414063 2.32488281 -5.43109375 1.74351563 -4.5625 1.14453125 C-2.1171875 -0.09375 -2.1171875 -0.09375 0 0 Z " fill="#343334" transform="translate(89.1171875,77.09375)"/>
<path d="M0 0 C0.74389606 -0.00012053 1.48779213 -0.00024107 2.2542305 -0.00036526 C4.65552031 0.00037946 7.05673193 0.00798759 9.45800781 0.01586914 C10.94319623 0.01733993 12.42838517 0.0183598 13.91357422 0.0189209 C19.41276834 0.02415796 24.91195135 0.0381192 30.41113281 0.05102539 C42.70363281 0.07165039 54.99613281 0.09227539 67.66113281 0.11352539 C67.66113281 26.84352539 67.66113281 53.57352539 67.66113281 81.11352539 C59.78657009 74.3639002 59.78657009 74.3639002 56.61816406 71.16821289 C55.93689453 70.4837207 55.255625 69.79922852 54.55371094 69.09399414 C53.52407227 68.05178711 53.52407227 68.05178711 52.47363281 66.98852539 C51.77560547 66.28598633 51.07757813 65.58344727 50.35839844 64.85961914 C49.06205187 63.55463848 47.76674546 62.24862297 46.47290039 60.94116211 C44.656084 59.04844895 44.656084 59.04844895 42.45776367 57.29077148 C40.00101905 54.3135669 40.20102934 52.41921634 40.27050781 48.59790039 C40.28339844 47.34750977 40.29628906 46.09711914 40.30957031 44.80883789 C40.34308594 43.50688477 40.37660156 42.20493164 40.41113281 40.86352539 C40.42917969 39.54610352 40.44722656 38.22868164 40.46582031 36.87133789 C40.5129701 33.61800231 40.57877237 30.36612914 40.66113281 27.11352539 C39.85482422 27.15541992 39.04851562 27.19731445 38.21777344 27.24047852 C34.53274252 27.40769129 30.84851014 27.51109824 27.16113281 27.61352539 C25.25847656 27.71407227 25.25847656 27.71407227 23.31738281 27.81665039 C14.01116599 28.01052991 14.01116599 28.01052991 10.11254883 25.42016602 C8.12057491 23.41362852 6.41072498 21.33045829 4.66113281 19.11352539 C3.3325599 17.91779445 1.98100832 16.74662575 0.59863281 15.61352539 C-9.368211 7.02549397 -9.368211 7.02549397 -11.33886719 1.11352539 C-7.58923866 -0.08558215 -3.89276579 -0.02035148 0 0 Z " fill="#FA7E24" transform="translate(115.3388671875,69.886474609375)"/>
<path d="M0 0 C10.56 0 21.12 0 32 0 C32 9.24 32 18.48 32 28 C30.35 28 28.7 28 27 28 C27.40992188 28.72445312 27.81984375 29.44890625 28.2421875 30.1953125 C33.5940246 39.79789104 33.5940246 39.79789104 35 45 C32 47 32 47 28 47 C26.62792969 45.47119141 26.62792969 45.47119141 25.421875 43.3515625 C24.98359375 42.59359375 24.5453125 41.835625 24.09375 41.0546875 C23.6503125 40.25289062 23.206875 39.45109375 22.75 38.625 C22.29109375 37.8309375 21.8321875 37.036875 21.359375 36.21875 C18 30.31984747 18 30.31984747 18 28 C14.7 28 11.4 28 8 28 C8 34.6 8 41.2 8 48 C5.36 48 2.72 48 0 48 C0 32.16 0 16.32 0 0 Z " fill="#464245" transform="translate(242,112)"/>
<path d="M0 0 C10.89 0 21.78 0 33 0 C33 2.31 33 4.62 33 7 C32 8 32 8 29.68334961 8.11352539 C28.68311768 8.10828857 27.68288574 8.10305176 26.65234375 8.09765625 C25.68031006 8.09515869 24.70827637 8.09266113 23.70678711 8.09008789 C22.46292236 8.08098389 21.21905762 8.07187988 19.9375 8.0625 C15.998125 8.041875 12.05875 8.02125 8 8 C8 18.89 8 29.78 8 41 C13.94 41 19.88 41 26 41 C26 36.71 26 32.42 26 28 C23.03 28 20.06 28 17 28 C17 25.36 17 22.72 17 20 C19.64590014 19.97315321 22.29153096 19.95323643 24.9375 19.9375 C25.69224609 19.92912109 26.44699219 19.92074219 27.22460938 19.91210938 C29.14994313 19.90347559 31.07535581 19.94775667 33 20 C34.77449594 21.77449594 34.13030072 24.35017261 34.1328125 26.75 C34.13474609 28.49796875 34.13474609 28.49796875 34.13671875 30.28125 C34.13285156 31.5084375 34.12898438 32.735625 34.125 34 C34.13080078 35.84078125 34.13080078 35.84078125 34.13671875 37.71875 C34.13542969 38.8840625 34.13414062 40.049375 34.1328125 41.25 C34.13168457 42.32765625 34.13055664 43.4053125 34.12939453 44.515625 C34 47 34 47 33 48 C30.55196233 48.0884283 28.13155206 48.11535972 25.68359375 48.09765625 C25.03588013 48.09664917 24.3881665 48.09564209 23.7208252 48.09460449 C21.29303221 48.08935843 18.86526439 48.07539725 16.4375 48.0625 C8.3009375 48.0315625 8.3009375 48.0315625 0 48 C0 32.16 0 16.32 0 0 Z " fill="#383539" transform="translate(198,112)"/>
<path d="M0 0 C10.89 0 21.78 0 33 0 C33 15.84 33 31.68 33 48 C22.11 48 11.22 48 0 48 C0 45.69 0 43.38 0 41 C8.58 41 17.16 41 26 41 C26 29.78 26 18.56 26 7 C20.06 7 14.12 7 8 7 C8.01160156 9.08183594 8.02320313 11.16367188 8.03515625 13.30859375 C8.04210735 15.31746298 8.04902389 17.32633251 8.05493164 19.33520508 C8.0599708 20.73495228 8.06680216 22.1346942 8.07543945 23.53442383 C8.0875232 25.54245777 8.09269807 27.55052957 8.09765625 29.55859375 C8.10289307 30.76829834 8.10812988 31.97800293 8.11352539 33.22436523 C8 36 8 36 7 37 C4.69 37 2.38 37 0 37 C0 24.79 0 12.58 0 0 Z " fill="#3C3840" transform="translate(326,112)"/>
<path d="M0 0 C1.34888732 0.00015905 2.69778075 0.00584927 4.04663086 0.01586914 C5.10991859 0.01799156 5.10991859 0.01799156 6.19468689 0.02015686 C8.46699173 0.02577096 10.73919936 0.03832576 13.01147461 0.05102539 C14.54858257 0.05603858 16.08569206 0.0606018 17.62280273 0.06469727 C21.39823103 0.07574497 25.17358632 0.09301898 28.94897461 0.11352539 C28.94897461 2.42352539 28.94897461 4.73352539 28.94897461 7.11352539 C16.57397461 7.60852539 16.57397461 7.60852539 3.94897461 8.11352539 C3.61897461 12.07352539 3.28897461 16.03352539 2.94897461 20.11352539 C5.74688477 20.09612305 5.74688477 20.09612305 8.60131836 20.07836914 C11.02970278 20.06899314 13.45808828 20.05989274 15.88647461 20.05102539 C17.73402344 20.03845703 17.73402344 20.03845703 19.61889648 20.02563477 C20.7887207 20.02241211 21.95854492 20.01918945 23.16381836 20.01586914 C24.78984985 20.00801392 24.78984985 20.00801392 26.44873047 20 C28.94897461 20.11352539 28.94897461 20.11352539 29.94897461 21.11352539 C30.03655464 23.11317521 30.05594037 25.11588649 30.04663086 27.11743164 C30.0441333 28.21128174 30.04163574 29.30513184 30.0390625 30.43212891 C30.0299585 31.83261475 30.02085449 33.23310059 30.01147461 34.67602539 C29.99084961 39.11040039 29.97022461 43.54477539 29.94897461 48.11352539 C18.72897461 48.11352539 7.50897461 48.11352539 -4.05102539 48.11352539 C-4.05102539 45.80352539 -4.05102539 43.49352539 -4.05102539 41.11352539 C8.32397461 40.61852539 8.32397461 40.61852539 20.94897461 40.11352539 C21.27897461 36.15352539 21.60897461 32.19352539 21.94897461 28.11352539 C13.36897461 28.11352539 4.78897461 28.11352539 -4.05102539 28.11352539 C-4.07784698 23.63431942 -4.09777716 19.15527188 -4.11352539 14.67602539 C-4.1219043 13.39663086 -4.1302832 12.11723633 -4.13891602 10.79907227 C-4.14213867 9.58413086 -4.14536133 8.36918945 -4.14868164 7.11743164 C-4.15391846 5.99151611 -4.15915527 4.86560059 -4.16455078 3.70556641 C-4.00020216 -0.04688369 -3.81162834 0.14182661 0 0 Z " fill="#2D2D30" transform="translate(553.051025390625,111.886474609375)"/>
<path d="M0 0 C5.424375 -0.020625 10.84875 -0.04125 16.4375 -0.0625 C18.15122803 -0.071604 19.86495605 -0.08070801 21.63061523 -0.09008789 C22.98160727 -0.09300716 24.33260019 -0.09555569 25.68359375 -0.09765625 C26.39100708 -0.10277222 27.09842041 -0.10788818 27.82727051 -0.11315918 C29.55192617 -0.11347032 31.27646838 -0.06225761 33 0 C34 1 34 1 34.12025452 2.90455627 C34.11803391 3.73728561 34.11581329 4.57001495 34.11352539 5.42797852 C34.11344986 6.36887833 34.11337433 7.30977814 34.11329651 8.27919006 C34.10813522 9.30209641 34.10297394 10.32500275 34.09765625 11.37890625 C34.0962413 12.42070541 34.09482635 13.46250458 34.09336853 14.53587341 C34.0877508 17.87811094 34.0751953 21.22028257 34.0625 24.5625 C34.05748728 26.82226466 34.05292398 29.08203037 34.04882812 31.34179688 C34.03777561 36.89455391 34.02102024 42.44727225 34 48 C31.36 48 28.72 48 26 48 C26 34.8 26 21.6 26 8 C20.06 8 14.12 8 8 8 C8 21.2 8 34.4 8 48 C5.36 48 2.72 48 0 48 C0 32.16 0 16.32 0 0 Z " fill="#666468" transform="translate(371,112)"/>
<path d="M0 0 C2.31 0 4.62 0 7 0 C7.33 13.2 7.66 26.4 8 40 C13.61 40 19.22 40 25 40 C25.33 26.8 25.66 13.6 26 0 C28.31 0 30.62 0 33 0 C33 15.84 33 31.68 33 48 C22.11 48 11.22 48 0 48 C0 32.16 0 16.32 0 0 Z " fill="#3C393F" transform="translate(503,112)"/>
<path d="M0 0 C2.73828125 -0.33203125 2.73828125 -0.33203125 6 0 C8.23046875 2.30078125 8.23046875 2.30078125 10.1875 5.3125 C13.23118956 9.95896821 13.23118956 9.95896821 17 14 C17.56847656 12.989375 18.13695312 11.97875 18.72265625 10.9375 C19.50125575 9.62419964 20.28127882 8.31174253 21.0625 7 C21.43310547 6.33226563 21.80371094 5.66453125 22.18554688 4.9765625 C23.34283443 3.07044183 24.35979412 1.51455631 26 0 C29.80859375 -0.4375 29.80859375 -0.4375 33 0 C32.42735836 4.63399233 30.40914146 8.17931967 28.0625 12.125 C27.70220703 12.74503906 27.34191406 13.36507812 26.97070312 14.00390625 C25.38298374 16.72320465 23.74707175 19.37939238 22 22 C22.37114216 25.24407273 23.83693629 27.67550366 25.50390625 30.44140625 C25.99697266 31.27220703 26.49003906 32.10300781 26.99804688 32.95898438 C28.0437767 34.69925636 29.09065818 36.43883681 30.13867188 38.17773438 C30.63044922 39.00724609 31.12222656 39.83675781 31.62890625 40.69140625 C32.08338135 41.44623291 32.53785645 42.20105957 33.00610352 42.97875977 C34 45 34 45 34 48 C30.9375 48.625 30.9375 48.625 27 48 C23.4536736 44.20810314 20.98085266 39.72134787 18.421875 35.23046875 C17.19398199 32.8829011 17.19398199 32.8829011 15 32 C14.73574219 32.70511719 14.47148437 33.41023438 14.19921875 34.13671875 C12.09712649 39.15572078 9.55599638 43.86082022 6 48 C2.0625 48.6875 2.0625 48.6875 -1 48 C-0.43589419 44.44582303 0.45173808 41.8532164 2.3203125 38.78515625 C2.77277344 38.01623047 3.22523438 37.24730469 3.69140625 36.45507812 C4.64748753 34.85943838 5.61105595 33.26826112 6.58203125 31.68164062 C9.27391068 27.08758604 9.27391068 27.08758604 10.08984375 21.91015625 C8.65148475 18.06937684 6.66760676 14.80383183 4.4375 11.375 C0 4.5335736 0 4.5335736 0 0 Z " fill="#353235" transform="translate(460,112)"/>
<path d="M0 0 C4.29 0 8.58 0 13 0 C14.61415881 4.03539702 15.56938069 7.29182384 16.375 11.5 C16.49657471 12.13220459 16.61814941 12.76440918 16.7434082 13.41577148 C17.01362124 14.82352939 17.28182274 16.23167443 17.54833984 17.64013672 C18.04655477 20.24324239 18.56365496 22.84224296 19.08203125 25.44140625 C19.45085397 27.31503862 19.81934591 29.18873614 20.1875 31.0625 C20.36651855 31.95453125 20.54553711 32.8465625 20.72998047 33.765625 C21.59445885 38.22549003 22.32889387 42.43202954 22 47 C21 48 21 48 17.9375 48.0625 C16.968125 48.041875 15.99875 48.02125 15 48 C14.82871582 47.16339844 14.65743164 46.32679688 14.48095703 45.46484375 C13.83746987 42.32605157 13.19243383 39.1875826 12.54638672 36.04931641 C12.26843312 34.69755364 11.99107613 33.34566804 11.71435547 31.99365234 C10.82685446 27.65867449 9.92286779 23.32758627 9 19 C8.71721191 17.6696875 8.71721191 17.6696875 8.42871094 16.3125 C8.02086369 14.52467647 7.5228926 12.75762217 7 11 C6.34 10.67 5.68 10.34 5 10 C4.91363281 10.7321875 4.82726562 11.464375 4.73828125 12.21875 C3.17306545 24.28096351 0.56280759 36.11735957 -2 48 C-4.64 48 -7.28 48 -10 48 C-9.39671078 39.64485747 -7.80715286 31.59141158 -6.04370117 23.42114258 C-5.56005828 21.17616602 -5.08711377 18.92911591 -4.61523438 16.68164062 C-4.30792173 15.23944893 -4.00000064 13.79738672 -3.69140625 12.35546875 C-3.55174942 11.690811 -3.41209259 11.02615326 -3.26820374 10.34135437 C-2.4645623 6.65104215 -1.42029654 3.55074134 0 0 Z " fill="#373539" transform="translate(294,112)"/>
<path d="M0 0 C1.34888732 0.00015905 2.69778075 0.00584927 4.04663086 0.01586914 C5.10991859 0.01799156 5.10991859 0.01799156 6.19468689 0.02015686 C8.46699173 0.02577096 10.73919936 0.03832576 13.01147461 0.05102539 C14.54858257 0.05603858 16.08569206 0.0606018 17.62280273 0.06469727 C21.39823103 0.07574497 25.17358632 0.09301898 28.94897461 0.11352539 C28.94897461 2.42352539 28.94897461 4.73352539 28.94897461 7.11352539 C16.57397461 7.60852539 16.57397461 7.60852539 3.94897461 8.11352539 C3.94897461 12.07352539 3.94897461 16.03352539 3.94897461 20.11352539 C4.60897461 20.77352539 5.26897461 21.43352539 5.94897461 22.11352539 C5.94897461 22.44352539 5.94897461 22.77352539 5.94897461 23.11352539 C6.70823242 23.10192383 7.46749023 23.09032227 8.24975586 23.07836914 C9.24362305 23.0693457 10.23749023 23.06032227 11.26147461 23.05102539 C12.24760742 23.03942383 13.23374023 23.02782227 14.24975586 23.01586914 C16.94897461 23.11352539 16.94897461 23.11352539 19.94897461 24.11352539 C19.94897461 24.77352539 19.94897461 25.43352539 19.94897461 26.11352539 C20.93897461 26.44352539 21.92897461 26.77352539 22.94897461 27.11352539 C22.94897461 27.44352539 22.94897461 27.77352539 22.94897461 28.11352539 C14.03897461 28.11352539 5.12897461 28.11352539 -4.05102539 28.11352539 C-4.07165039 23.67915039 -4.09227539 19.24477539 -4.11352539 14.67602539 C-4.12262939 13.27553955 -4.1317334 11.87505371 -4.14111328 10.43212891 C-4.14361084 9.33827881 -4.1461084 8.24442871 -4.14868164 7.11743164 C-4.15391846 5.99151611 -4.15915527 4.86560059 -4.16455078 3.70556641 C-4.00020216 -0.04688369 -3.81162834 0.14182661 0 0 Z " fill="#313033" transform="translate(553.051025390625,111.886474609375)"/>
<path d="M0 0 C13.365 0.495 13.365 0.495 27 1 C26.34 2.98 25.68 4.96 25 7 C19.39 7 13.78 7 8 7 C8.01160156 9.08183594 8.02320313 11.16367188 8.03515625 13.30859375 C8.04210735 15.31746298 8.04902389 17.32633251 8.05493164 19.33520508 C8.0599708 20.73495228 8.06680216 22.1346942 8.07543945 23.53442383 C8.0875232 25.54245777 8.09269807 27.55052957 8.09765625 29.55859375 C8.10289307 30.76829834 8.10812988 31.97800293 8.11352539 33.22436523 C8 36 8 36 7 37 C4.69 37 2.38 37 0 37 C0 24.79 0 12.58 0 0 Z " fill="#4E4A4F" transform="translate(326,112)"/>
<path d="M0 0 C4.25414623 -0.02465622 8.50825498 -0.04283899 12.76245117 -0.05493164 C14.21070073 -0.05997101 15.65894517 -0.06680253 17.10717773 -0.07543945 C19.18474588 -0.08752247 21.26224697 -0.09323211 23.33984375 -0.09765625 C24.59144287 -0.10289307 25.84304199 -0.10812988 27.13256836 -0.11352539 C30 0 30 0 31 1 C31.09304018 2.47354348 31.11746265 3.95150591 31.11352539 5.42797852 C31.11344986 6.36887833 31.11337433 7.30977814 31.11329651 8.27919006 C31.10813522 9.30209641 31.10297394 10.32500275 31.09765625 11.37890625 C31.0962413 12.42070541 31.09482635 13.46250458 31.09336853 14.53587341 C31.0877508 17.87811094 31.0751953 21.22028257 31.0625 24.5625 C31.05748728 26.82226466 31.05292398 29.08203037 31.04882812 31.34179688 C31.03777561 36.89455391 31.02102024 42.44727225 31 48 C28.69 48 26.38 48 24 48 C23.97494385 46.70787598 23.9498877 45.41575195 23.92407227 44.08447266 C23.83008376 39.30230344 23.72984234 34.52028238 23.62768555 29.73828125 C23.58430423 27.66637634 23.54263154 25.59443493 23.50268555 23.52246094 C23.44506035 20.54871609 23.38134375 17.57515552 23.31640625 14.6015625 C23.29969376 13.67131256 23.28298126 12.74106262 23.26576233 11.78262329 C23.24581711 10.92188202 23.22587189 10.06114075 23.20532227 9.17431641 C23.18200584 8.03514267 23.18200584 8.03514267 23.15821838 6.87295532 C23.10872873 4.90884279 23.10872873 4.90884279 22 3 C22.99 2.67 23.98 2.34 25 2 C16.75 1.67 8.5 1.34 0 1 C0 0.67 0 0.34 0 0 Z " fill="#484549" transform="translate(374,112)"/>
<path d="M0 0 C1.93814259 3.3876082 2.65066771 6.61558199 3.375 10.4375 C3.49657471 11.07421631 3.61814941 11.71093262 3.7434082 12.36694336 C4.01389995 13.78555589 4.28208143 15.20461026 4.54833984 16.62402344 C5.04452777 19.23424012 5.56227568 21.83968973 6.08203125 24.4453125 C6.45082234 26.31764897 6.81931411 28.19004443 7.1875 30.0625 C7.36651855 30.95445068 7.54553711 31.84640137 7.72998047 32.76538086 C8.59439513 37.22533886 9.32889985 41.43194651 9 46 C8 47 8 47 4.9375 47.0625 C3.968125 47.041875 2.99875 47.02125 2 47 C1.16230437 42.98013149 0.32617657 38.95994029 -0.50854492 34.93945312 C-0.79230124 33.57380519 -1.0764743 32.20824378 -1.36108398 30.84277344 C-1.77178645 28.871977 -2.1808306 26.90083522 -2.58984375 24.9296875 C-2.83597412 23.74616699 -3.08210449 22.56264648 -3.33569336 21.34326172 C-3.55491455 20.23998535 -3.77413574 19.13670898 -4 18 C-4.33173218 16.39342529 -4.33173218 16.39342529 -4.67016602 14.75439453 C-5.11654574 11.02674385 -3.81708268 9.23036922 -2 6 C-1.30028027 4.01132287 -0.62335603 2.01391949 0 0 Z " fill="#39353A" transform="translate(307,113)"/>
<path d="M0 0 C0.99 1.485 0.99 1.485 2 3 C2.66 2.34 3.32 1.68 4 1 C7 2 7 2 10 3 C10 3.66 10 4.32 10 5 C8.68 5 7.36 5 6 5 C6 18.53 6 32.06 6 46 C4.02 46 2.04 46 0 46 C0 30.82 0 15.64 0 0 Z " fill="#3F3A41" transform="translate(372,114)"/>
<path d="M0 0 C10.89 0 21.78 0 33 0 C33 2.64 33 5.28 33 8 C22.11 8 11.22 8 0 8 C0 5.36 0 2.72 0 0 Z " fill="#2C2C36" transform="translate(417,132)"/>
<path d="M0 0 C0.33 0 0.66 0 1 0 C1 3.63 1 7.26 1 11 C-0.32 11.33 -1.64 11.66 -3 12 C-2.59007812 12.72445312 -2.18015625 13.44890625 -1.7578125 14.1953125 C3.5940246 23.79789104 3.5940246 23.79789104 5 29 C2 31 2 31 -2 31 C-3.55566406 29.1640625 -3.55566406 29.1640625 -5.015625 26.625 C-5.54414063 25.72265625 -6.07265625 24.8203125 -6.6171875 23.890625 C-7.15601563 22.93671875 -7.69484375 21.9828125 -8.25 21 C-8.80429687 20.04609375 -9.35859375 19.0921875 -9.9296875 18.109375 C-11.2999126 15.74691793 -12.65579726 13.37732941 -14 11 C-13.01 9.68 -12.02 8.36 -11 7 C-11.66 6.34 -12.32 5.68 -13 5 C-11.9275 4.71125 -10.855 4.4225 -9.75 4.125 C-6.90599636 3.27179891 -4.56491017 2.4363497 -2 1 C-1.67 3.31 -1.34 5.62 -1 8 C-1.66 8 -2.32 8 -3 8 C-2.34 8.33 -1.68 8.66 -1 9 C-0.67 6.03 -0.34 3.06 0 0 Z " fill="#373538" transform="translate(272,128)"/>
<path d="M0 0 C10.89 0 21.78 0 33 0 C33 2.31 33 4.62 33 7 C22.11 7 11.22 7 0 7 C0 4.69 0 2.38 0 0 Z " fill="#414044" transform="translate(417,153)"/>
<path d="M0 0 C10.89 0 21.78 0 33 0 C33 2.31 33 4.62 33 7 C22.11 7 11.22 7 0 7 C0 4.69 0 2.38 0 0 Z " fill="#343336" transform="translate(417,112)"/>
<path d="M0 0 C9.9 0 19.8 0 30 0 C30 4.62 30 9.24 30 14 C29.67 14 29.34 14 29 14 C29 10.37 29 6.74 29 3 C28.34 3 27.68 3 27 3 C26.34 5.97 25.68 8.94 25 12 C24.67 12 24.34 12 24 12 C24 10.35 24 8.7 24 7 C18.06 7 12.12 7 6 7 C6.99 6.01 7.98 5.02 9 4 C8.01 4 7.02 4 6 4 C6 5.65 6 7.3 6 9 C5.34 9 4.68 9 4 9 C3.67 7.02 3.34 5.04 3 3 C2.34 3 1.68 3 1 3 C1.17402344 3.65355469 1.34804687 4.30710937 1.52734375 4.98046875 C2.12713563 8.81219707 1.86127119 12.4696844 1.5625 16.3125 C1.51029297 17.05306641 1.45808594 17.79363281 1.40429688 18.55664062 C1.27549848 20.37152709 1.13856738 22.18583325 1 24 C0.67 24 0.34 24 0 24 C0 16.08 0 8.16 0 0 Z " fill="#363538" transform="translate(243,112)"/>
<path d="M0 0 C2.31 0 4.62 0 7 0 C7.36734694 24.57142857 7.36734694 24.57142857 4 34 C3.34 33.34 2.68 32.68 2 32 C1.67 33.98 1.34 35.96 1 38 C0.67 38 0.34 38 0 38 C0 25.46 0 12.92 0 0 Z " fill="#434045" transform="translate(529,112)"/>
<path d="M0 0 C5.28 0 10.56 0 16 0 C16 3.96 16 7.92 16 12 C10.72 12 5.44 12 0 12 C0 8.04 0 4.08 0 0 Z " fill="#FCFCFC" transform="translate(250,120)"/>
<path d="M0 0 C8.25 0 16.5 0 25 0 C24.67 1.65 24.34 3.3 24 5 C26.97065509 4.65772428 26.97065509 4.65772428 30 4 C30.33 3.34 30.66 2.68 31 2 C31 3.32 31 4.64 31 6 C31.66 6.33 32.32 6.66 33 7 C22.11 7 11.22 7 0 7 C0 4.69 0 2.38 0 0 Z " fill="#423E43" transform="translate(326,153)"/>
<path d="M0 0 C0.99 0.495 0.99 0.495 2 1 C4.12448413 1.04682059 6.25033129 1.03752174 8.375 1 C14.97367852 0.94546547 21.43889837 1.3270665 28 2 C28 2.33 28 2.66 28 3 C24.70880065 3.1964031 21.41703066 3.38060745 18.125 3.5625 C17.18785156 3.61857422 16.25070312 3.67464844 15.28515625 3.73242188 C14.38925781 3.78076172 13.49335937 3.82910156 12.5703125 3.87890625 C11.74289551 3.9260376 10.91547852 3.97316895 10.06298828 4.02172852 C8 4 8 4 6 3 C6.02320313 3.86882812 6.04640625 4.73765625 6.0703125 5.6328125 C6.08835937 6.78523438 6.10640625 7.93765625 6.125 9.125 C6.14820313 10.26195313 6.17140625 11.39890625 6.1953125 12.5703125 C5.99673536 16.05732715 5.13116798 18.72056343 4 22 C4.33 22.66 4.66 23.32 5 24 C4.01 24 3.02 24 2 24 C1.67 24.66 1.34 25.32 1 26 C7.6 26 14.2 26 21 26 C21 26.33 21 26.66 21 27 C14.07 27 7.14 27 0 27 C0 18.09 0 9.18 0 0 Z " fill="#4D4B4E" transform="translate(549,113)"/>
<path d="M0 0 C0.33 0 0.66 0 1 0 C1 9.24 1 18.48 1 28 C0.01 27.67 -0.98 27.34 -2 27 C-1.67 26.67 -1.34 26.34 -1 26 C-2.32 25.34 -3.64 24.68 -5 24 C-4.34 23.67 -3.68 23.34 -3 23 C-3.495 20.525 -3.495 20.525 -4 18 C-4.99 18.33 -5.98 18.66 -7 19 C-7 15.37 -7 11.74 -7 8 C-12.28 8 -17.56 8 -23 8 C-23 11.96 -23 15.92 -23 20 C-23.33 20 -23.66 20 -24 20 C-24.06058594 18.86820313 -24.12117187 17.73640625 -24.18359375 16.5703125 C-24.26799917 15.08852855 -24.35264717 13.6067584 -24.4375 12.125 C-24.49647461 11.00544922 -24.49647461 11.00544922 -24.55664062 9.86328125 C-24.71573624 5.80013136 -24.71573624 5.80013136 -26 2 C-23.03 2.495 -23.03 2.495 -20 3 C-20.99 3.99 -21.98 4.98 -23 6 C-17.39 6.33 -11.78 6.66 -6 7 C-5.34 5.35 -4.68 3.7 -4 2 C-3.01 2.33 -2.02 2.66 -1 3 C-0.67 2.01 -0.34 1.02 0 0 Z " fill="#4C4A4C" transform="translate(273,112)"/>
<path d="M0 0 C5.61 0 11.22 0 17 0 C17 2.31 17 4.62 17 7 C16 8 16 8 13.68334961 8.11352539 C12.68311768 8.10828857 11.68288574 8.10305176 10.65234375 8.09765625 C9.68031006 8.09515869 8.70827637 8.09266113 7.70678711 8.09008789 C6.46292236 8.08098389 5.21905762 8.07187988 3.9375 8.0625 C-0.001875 8.041875 -3.94125 8.02125 -8 8 C-8 18.56 -8 29.12 -8 40 C-8.33 40 -8.66 40 -9 40 C-9.16725324 35.3188055 -9.32784864 30.63744899 -9.48217773 25.95581055 C-9.53566794 24.36199744 -9.59100255 22.76824515 -9.64819336 21.17456055 C-9.72990942 18.88864258 -9.80506897 16.60259054 -9.87890625 14.31640625 C-9.90594131 13.59973282 -9.93297638 12.88305939 -9.96083069 12.14466858 C-10.01297644 10.43052233 -10.01185628 8.71489824 -10 7 C-7.99826733 4.99826733 -4.06293108 5.62502357 -1.34765625 5.4765625 C1.36744646 5.21265473 1.36744646 5.21265473 3 2 C2.01 1.34 1.02 0.68 0 0 Z " fill="#535255" transform="translate(214,112)"/>
<path d="M0 0 C0.33 0 0.66 0 1 0 C1.67590188 3.37321776 2.33905518 6.74882242 3 10.125 C3.19078125 11.07632813 3.3815625 12.02765625 3.578125 13.0078125 C5.37418723 22.24470396 5.37418723 22.24470396 5 27 C4 28 4 28 0.9375 28.0625 C-0.031875 28.041875 -1.00125 28.02125 -2 28 C-4.55179935 14.94656489 -4.55179935 14.94656489 -2 8 C-2 6.906875 -2 5.81375 -2 4.6875 C-2 2 -2 2 0 0 Z " fill="#464147" transform="translate(311,132)"/>
<path d="M0 0 C9.57 0 19.14 0 29 0 C29 15.18 29 30.36 29 46 C28.67 46 28.34 46 28 46 C27.67 35.11 27.34 24.22 27 13 C26.34 12.67 25.68 12.34 25 12 C25 11.01 25 10.02 25 9 C23.68 8.34 22.36 7.68 21 7 C21 5.35 21 3.7 21 2 C21.66 1.67 22.32 1.34 23 1 C15.41 1 7.82 1 0 1 C0 0.67 0 0.34 0 0 Z " fill="#2F2D33" transform="translate(330,112)"/>
<path d="M0 0 C10.89 0 21.78 0 33 0 C32.67 0.66 32.34 1.32 32 2 C29.03 2 26.06 2 23 2 C22.67 2.66 22.34 3.32 22 4 C19.3046875 4.37890625 19.3046875 4.37890625 15.875 4.5625 C7.97997711 4.42870459 7.97997711 4.42870459 1 7 C11.56 7 22.12 7 33 7 C33 7.33 33 7.66 33 8 C22.11 8 11.22 8 0 8 C0 5.36 0 2.72 0 0 Z " fill="#5D5C63" transform="translate(417,132)"/>
<path d="M0 0 C0.33 0 0.66 0 1 0 C1 8.91 1 17.82 1 27 C-10.22 27 -21.44 27 -33 27 C-33 24.69 -33 22.38 -33 20 C-29.7 20 -26.4 20 -23 20 C-23.33 21.65 -23.66 23.3 -24 25 C-22.65808594 24.98259766 -22.65808594 24.98259766 -21.2890625 24.96484375 C-20.07992187 24.95582031 -18.87078125 24.94679687 -17.625 24.9375 C-16.44164062 24.92589844 -15.25828125 24.91429687 -14.0390625 24.90234375 C-9.34646464 25.01580115 -4.67067396 25.5329326 0 26 C0 17.42 0 8.84 0 0 Z " fill="#525057" transform="translate(582,133)"/>
<path d="M0 0 C2.475 0.99 2.475 0.99 5 2 C5.33 1.34 5.66 0.68 6 0 C6.99 1.65 7.98 3.3 9 5 C9.66 4.34 10.32 3.68 11 3 C12.03307771 4.76371818 13.05112049 6.53625033 14.0625 8.3125 C14.63097656 9.29863281 15.19945312 10.28476563 15.78515625 11.30078125 C17 14 17 14 16 17 C14.02 17.33 12.04 17.66 10 18 C8.32982236 15.18957076 6.66445191 12.37632343 5 9.5625 C4.28457031 8.35883789 4.28457031 8.35883789 3.5546875 7.13085938 C2.87792969 5.98520508 2.87792969 5.98520508 2.1875 4.81640625 C1.76855469 4.10943604 1.34960938 3.40246582 0.91796875 2.67407227 C0 1 0 1 0 0 Z " fill="#423E42" transform="translate(260,141)"/>
<path d="M0 0 C0.66 0 1.32 0 2 0 C2 9.57 2 19.14 2 29 C0.35 29 -1.3 29 -3 29 C-3.02913821 25.4375173 -3.04684529 21.87506546 -3.0625 18.3125 C-3.07087891 17.30509766 -3.07925781 16.29769531 -3.08789062 15.25976562 C-3.09111328 14.28330078 -3.09433594 13.30683594 -3.09765625 12.30078125 C-3.10289307 11.40528564 -3.10812988 10.50979004 -3.11352539 9.5871582 C-2.99840198 6.96358241 -2.58234285 4.55706947 -2 2 C-1.34 2.33 -0.68 2.66 0 3 C0 2.01 0 1.02 0 0 Z " fill="#3F3C41" transform="translate(331,120)"/>
<path d="M0 0 C0.66 0 1.32 0 2 0 C2.66 9.57 3.32 19.14 4 29 C-0.00232299 26.9988385 -2.18827117 25.43655746 -5 22 C-5.3125 18.6875 -5.3125 18.6875 -5 16 C-3.68 16 -2.36 16 -1 16 C-1.185625 14.700625 -1.37125 13.40125 -1.5625 12.0625 C-1.87890625 9.84765625 -1.87890625 9.84765625 -2 8 C-1.67 7.67 -1.34 7.34 -1 7 C-0.63239269 4.67182036 -0.29758419 2.3381615 0 0 Z " fill="#F57A14" transform="translate(178,120)"/>
<path d="M0 0 C2.64590014 -0.02684679 5.29153096 -0.04676357 7.9375 -0.0625 C8.69224609 -0.07087891 9.44699219 -0.07925781 10.22460938 -0.08789062 C12.14994313 -0.09652441 14.07535581 -0.05224333 16 0 C17 1 17 1 17.11352539 3.50024414 C17.10828857 4.58426514 17.10305176 5.66828613 17.09765625 6.78515625 C17.09443359 7.95498047 17.09121094 9.12480469 17.08789062 10.33007812 C17.07951172 11.56177734 17.07113281 12.79347656 17.0625 14.0625 C17.05798828 15.29806641 17.05347656 16.53363281 17.04882812 17.80664062 C17.03699608 20.87114117 17.02051173 23.93554721 17 27 C16.67 27 16.34 27 16 27 C15.67 22.05 15.34 17.1 15 12 C14.34 12 13.68 12 13 12 C13 9.03 13 6.06 13 3 C12.319375 3.33 11.63875 3.66 10.9375 4 C7.49159762 5.17307315 4.61602578 5.14180493 1 5 C1 5.66 1 6.32 1 7 C3.31 7 5.62 7 8 7 C8 7.33 8 7.66 8 8 C5.36 8 2.72 8 0 8 C0 5.36 0 2.72 0 0 Z " fill="#59565B" transform="translate(215,132)"/>
<path d="M0 0 C6.6 0 13.2 0 20 0 C19.34 1.98 18.68 3.96 18 6 C14.04 6 10.08 6 6 6 C6 5.34 6 4.68 6 4 C5.030625 4.185625 4.06125 4.37125 3.0625 4.5625 C2.051875 4.706875 1.04125 4.85125 0 5 C-0.33 4.67 -0.66 4.34 -1 4 C-1.99 4.99 -2.98 5.98 -4 7 C-4.33 5.68 -4.66 4.36 -5 3 C-3.35 2.67 -1.7 2.34 0 2 C0 1.34 0 0.68 0 0 Z " fill="#424143" transform="translate(333,113)"/>
<path d="M0 0 C9.9 0 19.8 0 30 0 C30 1.98 30 3.96 30 6 C29.01 6.66 28.02 7.32 27 8 C26.67 7.34 26.34 6.68 26 6 C25.9506479 11.51756476 25.91430338 17.03500171 25.89013672 22.55273438 C25.88006466 24.43068682 25.86640638 26.30862353 25.84912109 28.18652344 C25.82492547 30.8822009 25.81352917 33.57767146 25.8046875 36.2734375 C25.79436493 37.11619232 25.78404236 37.95894714 25.77340698 38.82723999 C25.77300856 40.88621247 25.87742412 42.94467935 26 45 C26.66 45.66 27.32 46.32 28 47 C26.68 47 25.36 47 24 47 C23.97494385 45.73816895 23.9498877 44.47633789 23.92407227 43.17626953 C23.83007894 38.50591431 23.72983869 33.83571063 23.62768555 29.16552734 C23.58430605 27.14212584 23.54263322 25.11868701 23.50268555 23.09521484 C23.44505592 20.19096616 23.3813406 17.28690589 23.31640625 14.3828125 C23.29969376 13.47443634 23.28298126 12.56606018 23.26576233 11.63015747 C23.24581711 10.78943695 23.22587189 9.94871643 23.20532227 9.08251953 C23.18200584 7.96999313 23.18200584 7.96999313 23.15821838 6.83499146 C23.10526504 4.90325896 23.10526504 4.90325896 22 3 C22.99 2.67 23.98 2.34 25 2 C16.75 1.67 8.5 1.34 0 1 C0 0.67 0 0.34 0 0 Z " fill="#2C292E" transform="translate(374,112)"/>
<path d="M0 0 C1.98 0 3.96 0 6 0 C6 13.86 6 27.72 6 42 C6.66 42.33 7.32 42.66 8 43 C7.67 43.99 7.34 44.98 7 46 C6.34 46 5.68 46 5 46 C5 46.66 5 47.32 5 48 C3.35 48 1.7 48 0 48 C0 46.02 0 44.04 0 42 C0.66 42 1.32 42 2 42 C2 41.34 2 40.68 2 40 C2.99 39.505 2.99 39.505 4 39 C4.33 27.12 4.66 15.24 5 3 C3.35 3 1.7 3 0 3 C0 2.01 0 1.02 0 0 Z " fill="#2A2A2C" transform="translate(504,112)"/>
<path d="M0 0 C0.99 0.33 1.98 0.66 3 1 C3 11.23 3 21.46 3 32 C2.01 32 1.02 32 0 32 C0 21.44 0 10.88 0 0 Z " fill="#514C53" transform="translate(352,120)"/>
<path d="M0 0 C1.24652344 -0.01417969 2.49304688 -0.02835938 3.77734375 -0.04296875 C7.0625 0.1875 7.0625 0.1875 10.0625 2.1875 C10.3925 3.5075 10.7225 4.8275 11.0625 6.1875 C4.7925 5.8575 -1.4775 5.5275 -7.9375 5.1875 C-8.2675 3.8675 -8.5975 2.5475 -8.9375 1.1875 C-5.98162889 -0.29043555 -3.28752355 0.01696349 0 0 Z " fill="#424042" transform="translate(565.9375,152.8125)"/>
<path d="M0 0 C10.56 0 21.12 0 32 0 C32 1.32 32 2.64 32 4 C31.01 3.67 30.02 3.34 29 3 C26.86338742 2.84929203 24.72287876 2.7514034 22.58203125 2.68359375 C21.32841797 2.64169922 20.07480469 2.59980469 18.78320312 2.55664062 C16.81770508 2.49766602 16.81770508 2.49766602 14.8125 2.4375 C13.47720022 2.39429008 12.14191348 2.350675 10.80664062 2.30664062 C7.53786703 2.20043498 4.26901667 2.09839003 1 2 C1 4.97 1 7.94 1 11 C0.67 11 0.34 11 0 11 C0 7.37 0 3.74 0 0 Z " fill="#2C2B2E" transform="translate(550,112)"/>
<path d="M0 0 C15 0 15 0 22 1 C22 1.33 22 1.66 22 2 C15.4 2.33 8.8 2.66 2 3 C1.67 12.57 1.34 22.14 1 32 C0.67 32 0.34 32 0 32 C0 21.44 0 10.88 0 0 Z " fill="#262429" transform="translate(199,112)"/>
<path d="M0 0 C7 8.75 7 8.75 7 14 C3.8125 14.4375 3.8125 14.4375 0 14 C-2.11158381 11.91454966 -3.56739143 9.58793807 -5 7 C-2 6 -2 6 0 6 C0 4.02 0 2.04 0 0 Z " fill="#3F3A41" transform="translate(487,146)"/>
<path d="M0 0 C0.66 0.66 1.32 1.32 2 2 C5.12814514 2.24360073 5.12814514 2.24360073 8.625 2.125 C9.81351562 2.10695313 11.00203125 2.08890625 12.2265625 2.0703125 C13.14179688 2.04710938 14.05703125 2.02390625 15 2 C15.33 3.32 15.66 4.64 16 6 C8.08 6.495 8.08 6.495 0 7 C0 4.69 0 2.38 0 0 Z " fill="#434245" transform="translate(417,112)"/>
<path d="M0 0 C0.33 0 0.66 0 1 0 C1.33 3.63 1.66 7.26 2 11 C2.33 11 2.66 11 3 11 C3 16.28 3 21.56 3 27 C2.34 27 1.68 27 1 27 C0.67 28.65 0.34 30.3 0 32 C0.66 32.33 1.32 32.66 2 33 C2 33.66 2 34.32 2 35 C1.01 35 0.02 35 -1 35 C-1.15956375 23.29865851 -0.66408409 11.68076488 0 0 Z " fill="#333033" transform="translate(200,124)"/>
<path d="M0 0 C4.39656173 -0.02465504 8.7930872 -0.04283842 13.18969727 -0.05493164 C14.68644918 -0.05997121 16.18319616 -0.06680287 17.67993164 -0.07543945 C19.82699807 -0.08752159 21.97399962 -0.09323191 24.12109375 -0.09765625 C26.06133423 -0.10551147 26.06133423 -0.10551147 28.04077148 -0.11352539 C31 0 31 0 32 1 C32 2.65 32 4.3 32 6 C28.7 5.34 25.4 4.68 22 4 C22 3.34 22 2.68 22 2 C14.74 1.67 7.48 1.34 0 1 C0 0.67 0 0.34 0 0 Z " fill="#37363C" transform="translate(418,133)"/>
<path d="M0 0 C4.95 0 9.9 0 15 0 C14.67 0.66 14.34 1.32 14 2 C11.93359375 2.4140625 11.93359375 2.4140625 9.4375 2.625 C8.61121094 2.69976562 7.78492188 2.77453125 6.93359375 2.8515625 C5.97646484 2.92503906 5.97646484 2.92503906 5 3 C5.33 4.65 5.66 6.3 6 8 C5.01 8.495 5.01 8.495 4 9 C3.67 7.02 3.34 5.04 3 3 C2.34 3 1.68 3 1 3 C1.17402344 3.65355469 1.34804687 4.30710937 1.52734375 4.98046875 C2.12713563 8.81219707 1.86127119 12.4696844 1.5625 16.3125 C1.51029297 17.05306641 1.45808594 17.79363281 1.40429688 18.55664062 C1.27549848 20.37152709 1.13856738 22.18583325 1 24 C0.67 24 0.34 24 0 24 C0 16.08 0 8.16 0 0 Z " fill="#2E2D30" transform="translate(243,112)"/>
<path d="M0 0 C2.75 -0.25 2.75 -0.25 6 0 C7.3743291 1.29103643 8.70896357 2.6256709 10 4 C12.64184541 4.79681318 12.64184541 4.79681318 15 5 C15 5.33 15 5.66 15 6 C10.05 6.33 5.1 6.66 0 7 C0 4.69 0 2.38 0 0 Z " fill="#4E4A4F" transform="translate(326,153)"/>
<path d="M0 0 C0.33 0 0.66 0 1 0 C1 1.65 1 3.3 1 5 C2.32 4.67 3.64 4.34 5 4 C4.67 3.34 4.34 2.68 4 2 C4.99 1.67 5.98 1.34 7 1 C7.84454356 4.37817425 8.10844919 6.67465243 7 10 C4.36 10 1.72 10 -1 10 C-0.67 6.7 -0.34 3.4 0 0 Z " fill="#4D484E" transform="translate(285,150)"/>
<path d="M0 0 C8.25 0 16.5 0 25 0 C25 0.33 25 0.66 25 1 C23.02 1.33 21.04 1.66 19 2 C19 2.33 19 2.66 19 3 C16.04196565 3.19421438 13.08379837 3.38066186 10.125 3.5625 C9.28324219 3.61857422 8.44148437 3.67464844 7.57421875 3.73242188 C6.76855469 3.78076172 5.96289062 3.82910156 5.1328125 3.87890625 C4.38918457 3.9260376 3.64555664 3.97316895 2.87939453 4.02172852 C1 4 1 4 -1 3 C-0.67 2.01 -0.34 1.02 0 0 Z " fill="#59595B" transform="translate(557,132)"/>
<path d="M0 0 C2.41346327 4.1373656 4.5081809 9.45467653 3.55078125 14.25 C3.36902344 14.8275 3.18726563 15.405 3 16 C3 15.01 3 14.02 3 13 C0.69 13 -1.62 13 -4 13 C-4.33 13.66 -4.66 14.32 -5 15 C-4.29880002 11.84460011 -3.21138129 8.99282435 -2 6 C-1.32204472 4.00379834 -0.65266469 2.00461299 0 0 Z " fill="#464446" transform="translate(307,113)"/>
<path d="M0 0 C5.75 -0.125 5.75 -0.125 8 1 C8 1.99 8 2.98 8 4 C8.66 4 9.32 4 10 4 C9.25 8.75 9.25 8.75 7 11 C6.59952556 13.32275177 6.2602896 15.65739357 6 18 C5.34 17.67 4.68 17.34 4 17 C4.33 12.71 4.66 8.42 5 4 C4.34 3.67 3.68 3.34 3 3 C3 2.34 3 1.68 3 1 C2.01 0.67 1.02 0.34 0 0 Z " fill="#3C3C3E" transform="translate(570,135)"/>
<path d="M0 0 C0.33 0 0.66 0 1 0 C1 3.63 1 7.26 1 11 C-0.98 11 -2.96 11 -5 11 C-5 10.34 -5 9.68 -5 9 C-6.32 9 -7.64 9 -9 9 C-9 8.34 -9 7.68 -9 7 C-7.02 6.67 -5.04 6.34 -3 6 C-3.99 5.67 -4.98 5.34 -6 5 C-5.67 4.01 -5.34 3.02 -5 2 C-4.01 1.67 -3.02 1.34 -2 1 C-1.67 3.31 -1.34 5.62 -1 8 C-1.66 8 -2.32 8 -3 8 C-2.34 8.33 -1.68 8.66 -1 9 C-0.67 6.03 -0.34 3.06 0 0 Z " fill="#323031" transform="translate(272,128)"/>
<path d="M0 0 C8.73139464 -0.11624638 17.31126982 0.10884819 26 1 C26 1.33 26 1.66 26 2 C18.08 2.33 10.16 2.66 2 3 C2 3.66 2 4.32 2 5 C1.34 5 0.68 5 0 5 C0 3.35 0 1.7 0 0 Z " fill="#403F3F" transform="translate(551,114)"/>
<path d="M0 0 C4.29 0 8.58 0 13 0 C13.33 0.66 13.66 1.32 14 2 C13.505 2.474375 13.01 2.94875 12.5 3.4375 C10.88457803 4.75923698 10.88457803 4.75923698 11 6 C9.35 6 7.7 6 6 6 C6.99 5.67 7.98 5.34 9 5 C9 4.34 9 3.68 9 3 C8.01 3.33 7.02 3.66 6 4 C3.64811553 3.40206327 1.31074405 2.74118205 -1 2 C-0.67 1.34 -0.34 0.68 0 0 Z " fill="#3D3C3C" transform="translate(210,153)"/>
<path d="M0 0 C0.33 0.99 0.66 1.98 1 3 C1.99 3.33 2.98 3.66 4 4 C3.67 4.99 3.34 5.98 3 7 C2.34 7 1.68 7 1 7 C1 7.66 1 8.32 1 9 C-0.65 9 -2.3 9 -4 9 C-4 7.02 -4 5.04 -4 3 C-3.34 3 -2.68 3 -2 3 C-2 2.34 -2 1.68 -2 1 C-1.34 0.67 -0.68 0.34 0 0 Z " fill="#343236" transform="translate(508,151)"/>
<path d="M0 0 C2.97 0.495 2.97 0.495 6 1 C4.515 2.485 4.515 2.485 3 4 C7.95 4.33 12.9 4.66 18 5 C18 5.33 18 5.66 18 6 C13.05 6 8.1 6 3 6 C3 9.96 3 13.92 3 18 C2.67 18 2.34 18 2 18 C1.93941406 16.86820313 1.87882813 15.73640625 1.81640625 14.5703125 C1.73200083 13.08852855 1.64735283 11.6067584 1.5625 10.125 C1.50352539 9.00544922 1.50352539 9.00544922 1.44335938 7.86328125 C1.28426376 3.80013136 1.28426376 3.80013136 0 0 Z " fill="#595659" transform="translate(247,114)"/>
<path d="M0 0 C0.66 0 1.32 0 2 0 C3.5625 2.8125 3.5625 2.8125 5 6 C4.67 6.99 4.34 7.98 4 9 C2.02 9.33 0.04 9.66 -2 10 C-1.34 6.7 -0.68 3.4 0 0 Z " fill="#3F3A3F" transform="translate(272,149)"/>
<path d="M0 0 C3.96 0 7.92 0 12 0 C12 4.62 12 9.24 12 14 C11.67 14 11.34 14 11 14 C11 10.37 11 6.74 11 3 C10.34 3 9.68 3 9 3 C8.67 3.66 8.34 4.32 8 5 C6.35 4.67 4.7 4.34 3 4 C3.33 3.34 3.66 2.68 4 2 C2.68 1.34 1.36 0.68 0 0 Z " fill="#2E2C2E" transform="translate(261,112)"/>
<path d="M0 0 C0.33 0 0.66 0 1 0 C1 6.6 1 13.2 1 20 C-1.31 20 -3.62 20 -6 20 C-5.67 18.68 -5.34 17.36 -5 16 C-3.68 16 -2.36 16 -1 16 C-0.67 10.72 -0.34 5.44 0 0 Z " fill="#564F54" transform="translate(249,140)"/>
<path d="M0 0 C0.90363281 0.08378906 1.80726563 0.16757813 2.73828125 0.25390625 C3.91777344 0.35574219 5.09726562 0.45757812 6.3125 0.5625 C7.48425781 0.66691406 8.65601563 0.77132812 9.86328125 0.87890625 C13.03032575 1.18577434 13.03032575 1.18577434 16 0 C17.02104551 0.97850195 18.0206121 1.97980427 19 3 C19 3.33 19 3.66 19 4 C12.73 3.67 6.46 3.34 0 3 C0 2.01 0 1.02 0 0 Z " fill="#363339" transform="translate(558,155)"/>
<path d="M0 0 C1.32 0.66 2.64 1.32 4 2 C3.34 2 2.68 2 2 2 C1.94615479 4.29141286 1.90727913 6.58318188 1.875 8.875 C1.85179687 10.15117188 1.82859375 11.42734375 1.8046875 12.7421875 C1.64358476 16.08593338 1.64358476 16.08593338 4 18 C2.02 18.66 0.04 19.32 -2 20 C-2 17 -2 17 -1.53515625 15.234375 C-0.82027191 12.24960244 -0.65168637 9.30980529 -0.4375 6.25 C-0.31181641 4.49429688 -0.31181641 4.49429688 -0.18359375 2.703125 C-0.12300781 1.81109375 -0.06242188 0.9190625 0 0 Z " fill="#292929" transform="translate(555,116)"/>
<path d="M0 0 C3.56703705 0.43444682 5.28813991 1.90725491 7.75 4.4375 C8.67039062 5.36369141 8.67039062 5.36369141 9.609375 6.30859375 C11 8 11 8 11 10 C9.35 10.33 7.7 10.66 6 11 C5.67 9.02 5.34 7.04 5 5 C4.34 5 3.68 5 3 5 C2.67 4.34 2.34 3.68 2 3 C1.01 3.495 1.01 3.495 0 4 C-0.33 3.01 -0.66 2.02 -1 1 C-0.67 0.67 -0.34 0.34 0 0 Z " fill="#3E3E3F" transform="translate(98,88)"/>
<path d="M0 0 C3.71599191 -0.20086443 4.77208445 -0.1519437 8 2 C11.12521833 2.16699232 11.12521833 2.16699232 14 2 C14.66 3.32 15.32 4.64 16 6 C10.13190493 5.47606294 5.45126259 4.23891142 0 2 C0 1.34 0 0.68 0 0 Z " fill="#4E4B51" transform="translate(90,195)"/>
<path d="M0 0 C0.33 0.99 0.66 1.98 1 3 C1.66 3.66 2.32 4.32 3 5 C0.52187506 8.45167403 -0.79606135 10.23163306 -5 11 C-4.55123384 9.35153231 -4.09069512 7.70626545 -3.625 6.0625 C-3.36976563 5.14597656 -3.11453125 4.22945312 -2.8515625 3.28515625 C-2 1 -2 1 0 0 Z " fill="#3E3A3D" transform="translate(470,144)"/>
<path d="M0 0 C-1 3 -1 3 -2.63671875 3.94921875 C-6.91126307 5.4880547 -10.38405568 6.34619582 -15 6 C-12.72268574 3.39422695 -10.78597238 2.3475813 -7.5 1.3125 C-6.7265625 1.06113281 -5.953125 0.80976563 -5.15625 0.55078125 C-3 0 -3 0 0 0 Z " fill="#403C3D" transform="translate(143,194)"/>
<path d="M0 0 C2.31 0 4.62 0 7 0 C7 2.31 7 4.62 7 7 C6.67 7 6.34 7 6 7 C5.67 6.01 5.34 5.02 5 4 C5 4.66 5 5.32 5 6 C3.35 6 1.7 6 0 6 C0 4.02 0 2.04 0 0 Z " fill="#403E40" transform="translate(443,112)"/>
<path d="M0 0 C0.33 0.66 0.66 1.32 1 2 C1.66 2.33 2.32 2.66 3 3 C1.60667426 6.36720387 0.0210714 7.9859524 -3 10 C-3.75 8.375 -3.75 8.375 -4 6 C-2.0625 2.75 -2.0625 2.75 0 0 Z " fill="#39383B" transform="translate(61,101)"/>
<path d="M0 0 C6.27 0 12.54 0 19 0 C19 0.33 19 0.66 19 1 C18.14277344 1.06058594 17.28554688 1.12117187 16.40234375 1.18359375 C10.56395127 1.61143536 4.77942728 2.059163 -1 3 C-0.67 2.01 -0.34 1.02 0 0 Z " fill="#383943" transform="translate(420,135)"/>
<path d="M0 0 C1.65 0 3.3 0 5 0 C3.68 0.33 2.36 0.66 1 1 C1 2.32 1 3.64 1 5 C1.33 4.01 1.66 3.02 2 2 C2.99 2 3.98 2 5 2 C5 2.99 5 3.98 5 5 C5.66 5.66 6.32 6.32 7 7 C4.69 7 2.38 7 0 7 C0 4.69 0 2.38 0 0 Z " fill="#545258" transform="translate(549,153)"/>
<path d="M0 0 C0.99 0 1.98 0 3 0 C3.66 1.32 4.32 2.64 5 4 C3.02 4.33 1.04 4.66 -1 5 C-0.67 3.35 -0.34 1.7 0 0 Z M5 1 C5.66 1 6.32 1 7 1 C7.33 2.65 7.66 4.3 8 6 C7.34 6 6.68 6 6 6 C5.67 4.35 5.34 2.7 5 1 Z " fill="#373338" transform="translate(351,153)"/>
<path d="M0 0 C0.66 1.32 1.32 2.64 2 4 C1.01 4.495 1.01 4.495 0 5 C0.66 7.64 1.32 10.28 2 13 C1.01 13 0.02 13 -1 13 C-2.17881287 9.31620978 -2.21358801 5.84458427 -2 2 C-1.34 1.34 -0.68 0.68 0 0 Z " fill="#3C383C" transform="translate(552,124)"/>
<path d="M0 0 C3.21043882 1.38188453 5.04936365 2.92421903 7.25 5.625 C8.03117188 6.57246094 8.03117188 6.57246094 8.828125 7.5390625 C9.40820312 8.26222656 9.40820312 8.26222656 10 9 C9.01 9.33 8.02 9.66 7 10 C7 9.34 7 8.68 7 8 C6.34 8 5.68 8 5 8 C5 7.34 5 6.68 5 6 C4.34 5.67 3.68 5.34 3 5 C2.67 4.01 2.34 3.02 2 2 C1.34 2 0.68 2 0 2 C0 1.34 0 0.68 0 0 Z " fill="#49484D" transform="translate(162,151)"/>
<path d="M0 0 C1.65 0 3.3 0 5 0 C5.33 0.66 5.66 1.32 6 2 C5.34 2.66 4.68 3.32 4 4 C3.67 4.66 3.34 5.32 3 6 C1.68 5.67 0.36 5.34 -1 5 C-1 2 -1 2 0 0 Z " fill="#3E3D3D" transform="translate(394,113)"/>
<path d="M0 0 C3.3 0 6.6 0 10 0 C8.1875 2 8.1875 2 6 4 C3 4 3 4 0 2 C0 1.34 0 0.68 0 0 Z " fill="#F3812E" transform="translate(104,71)"/>
<path d="M0 0 C1.423125 0.495 1.423125 0.495 2.875 1 C5.77062452 2.10159191 5.77062452 2.10159191 8 2 C8 2.99 8 3.98 8 5 C7.01 5.33 6.02 5.66 5 6 C1.8125 4.0625 1.8125 4.0625 -1 2 C-0.67 1.34 -0.34 0.68 0 0 Z " fill="#3B383E" transform="translate(80,188)"/>
<path d="M0 0 C1.65 0 3.3 0 5 0 C4.67 1.32 4.34 2.64 4 4 C3.67 3.67 3.34 3.34 3 3 C2.01 3.495 2.01 3.495 1 4 C1.33 4.99 1.66 5.98 2 7 C1.34 8.32 0.68 9.64 0 11 C0 7.37 0 3.74 0 0 Z " fill="#312D31" transform="translate(530,113)"/>
<path d="M0 0 C5.08335725 0.15404113 7.35754718 3.02068432 10.64453125 6.50390625 C11.09183594 6.99761719 11.53914063 7.49132812 12 8 C8.06830895 8 6.83572772 6.60580385 4 4 C4 3.34 4 2.68 4 2 C3.01 2.33 2.02 2.66 1 3 C0.67 2.01 0.34 1.02 0 0 Z " fill="#252425" transform="translate(87,79)"/>
<path d="M0 0 C0.66 0.33 1.32 0.66 2 1 C2.04254356 2.99954746 2.04080783 5.00041636 2 7 C1 8 1 8 -2.0625 8.0625 C-3.031875 8.041875 -4.00125 8.02125 -5 8 C-4.01 7.34 -3.02 6.68 -2 6 C-0.78715124 2.94570927 -0.78715124 2.94570927 0 0 Z " fill="#504C54" transform="translate(314,152)"/>
<path d="M0 0 C-0.33 1.98 -0.66 3.96 -1 6 C-2.32 6.33 -3.64 6.66 -5 7 C-4.625 4.0625 -4.625 4.0625 -4 1 C-2 0 -2 0 0 0 Z " fill="#403742" transform="translate(314,152)"/>
<path d="M0 0 C1.98 0 3.96 0 6 0 C6 2.64 6 5.28 6 8 C5.67 8 5.34 8 5 8 C5 6.35 5 4.7 5 3 C3.35 3 1.7 3 0 3 C0 2.01 0 1.02 0 0 Z " fill="#323134" transform="translate(504,112)"/>
<path d="M0 0 C0.86625 0.5259375 0.86625 0.5259375 1.75 1.0625 C4.35801776 2.14917407 5.39417629 1.93065133 8 1 C8.33 1.66 8.66 2.32 9 3 C8.34 3.66 7.68 4.32 7 5 C3.875 4.625 3.875 4.625 1 4 C0.67 2.68 0.34 1.36 0 0 Z " fill="#2C2A2A" transform="translate(84,83)"/>
<path d="M0 0 C0.33 0.66 0.66 1.32 1 2 C2.65 1.67 4.3 1.34 6 1 C6 2.33333333 6 3.66666667 6 5 C3.69 5 1.38 5 -1 5 C-0.67 3.35 -0.34 1.7 0 0 Z " fill="#46414A" transform="translate(460,155)"/>
<path d="M0 0 C0.66 0 1.32 0 2 0 C1.65930765 3.15140423 1.41923159 4.60781561 -0.9375 6.8125 C-3 8 -3 8 -5 8 C-5 7.34 -5 6.68 -5 6 C-4.34 6 -3.68 6 -3 6 C-2.690625 5.38125 -2.38125 4.7625 -2.0625 4.125 C-1.375 2.75 -0.6875 1.375 0 0 Z " fill="#413F40" transform="translate(155,184)"/>
<path d="M0 0 C1.23556641 0.01740234 1.23556641 0.01740234 2.49609375 0.03515625 C3.32238281 0.04417969 4.14867187 0.05320313 5 0.0625 C5.63808594 0.07410156 6.27617187 0.08570313 6.93359375 0.09765625 C6.93359375 0.75765625 6.93359375 1.41765625 6.93359375 2.09765625 C0.87890625 3.07421875 0.87890625 3.07421875 -1.06640625 3.09765625 C-1.72640625 2.43765625 -2.38640625 1.77765625 -3.06640625 1.09765625 C-2.06640625 0.09765625 -2.06640625 0.09765625 0 0 Z " fill="#444242" transform="translate(212.06640625,152.90234375)"/>
<path d="M0 0 C0.66 0.33 1.32 0.66 2 1 C1.505 1.639375 1.01 2.27875 0.5 2.9375 C-1.09802862 4.70974339 -1.09802862 4.70974339 -1 6 C-3.97 6 -6.94 6 -10 6 C-10 5.67 -10 5.34 -10 5 C-7.69 5 -5.38 5 -3 5 C-3 3.68 -3 2.36 -3 1 C-2.01 0.67 -1.02 0.34 0 0 Z " fill="#424242" transform="translate(260,134)"/>
<path d="M0 0 C0.99 0.33 1.98 0.66 3 1 C3.6875 3.0625 3.6875 3.0625 4 5 C2.02 5 0.04 5 -2 5 C-1 2 -1 2 0 0 Z " fill="#4C4950" transform="translate(419,155)"/>
<path d="M0 0 C1.98 1.65 3.96 3.3 6 5 C4.02 5.99 4.02 5.99 2 7 C0 4 0 4 0 0 Z " fill="#434347" transform="translate(156,144)"/>
<path d="M0 0 C0.99 0.99 1.98 1.98 3 3 C2 6 2 6 0 8 C0 7.34 0 6.68 0 6 C-0.66 6 -1.32 6 -2 6 C-1.49396008 3.83125748 -1.00016187 2.00032373 0 0 Z " fill="#3E3D41" transform="translate(76,122)"/>
<path d="M0 0 C2.31 0 4.62 0 7 0 C7 0.66 7 1.32 7 2 C6.01 2 5.02 2 4 2 C4 2.66 4 3.32 4 4 C2.35 4 0.7 4 -1 4 C-0.34 3.34 0.32 2.68 1 2 C0.67 1.34 0.34 0.68 0 0 Z " fill="#3F3E40" transform="translate(251,114)"/>
<path d="M0 0 C3.71599191 -0.20086443 4.77208445 -0.1519437 8 2 C8 2.66 8 3.32 8 4 C5.23723823 3.47731534 2.6739124 2.89130413 0 2 C0 1.34 0 0.68 0 0 Z " fill="#434146" transform="translate(90,195)"/>
<path d="M0 0 C2.97 0.495 2.97 0.495 6 1 C6 1.66 6 2.32 6 3 C3.36 3.33 0.72 3.66 -2 4 C-2 3.34 -2 2.68 -2 2 C-1.34 2 -0.68 2 0 2 C0 1.34 0 0.68 0 0 Z " fill="#302F2F" transform="translate(251,136)"/>
<path d="M0 0 C0.99 0 1.98 0 3 0 C3 0.66 3 1.32 3 2 C4.32 2.33 5.64 2.66 7 3 C6.01 3.99 5.02 4.98 4 6 C2.62437146 4.71034824 1.29233607 3.37310707 0 2 C0 1.34 0 0.68 0 0 Z " fill="#343136" transform="translate(102,126)"/>
<path d="M0 0 C1.98 0.99 1.98 0.99 4 2 C3.34 2 2.68 2 2 2 C1.67 5.63 1.34 9.26 1 13 C0.67 13 0.34 13 0 13 C0 8.71 0 4.42 0 0 Z " fill="#232126" transform="translate(555,116)"/>
<path d="M0 0 C4.62 0 9.24 0 14 0 C14 0.99 14 1.98 14 3 C13.01 2.67 12.02 2.34 11 2 C9.10787263 1.77820215 7.21115528 1.59385985 5.3125 1.4375 C4.31863281 1.35371094 3.32476563 1.26992187 2.30078125 1.18359375 C1.16189453 1.09271484 1.16189453 1.09271484 0 1 C0 0.67 0 0.34 0 0 Z " fill="#232121" transform="translate(568,113)"/>
<path d="M0 0 C2.7839183 1.39195915 2.97898997 3.15575779 4 6 C3 7 3 7 0.4375 7.0625 C-0.7690625 7.0315625 -0.7690625 7.0315625 -2 7 C-1.01 6.67 -0.02 6.34 1 6 C0.649375 5.38125 0.29875 4.7625 -0.0625 4.125 C-0.371875 3.42375 -0.68125 2.7225 -1 2 C-0.67 1.34 -0.34 0.68 0 0 Z " fill="#434244" transform="translate(140,162)"/>
<path d="M0 0 C0.33 0 0.66 0 1 0 C1 1.98 1 3.96 1 6 C1.66 6.33 2.32 6.66 3 7 C0.03 6.67 -2.94 6.34 -6 6 C-5.34 5.34 -4.68 4.68 -4 4 C-3.01 4 -2.02 4 -1 4 C-0.67 2.68 -0.34 1.36 0 0 Z " fill="#403C42" transform="translate(228,153)"/>
<path d="M0 0 C2.475 0.99 2.475 0.99 5 2 C5 3.98 5 5.96 5 8 C2.74754119 5.31158141 1.11786042 3.35358125 0 0 Z " fill="#4B494B" transform="translate(260,141)"/>
<path d="M0 0 C0.94875 0.350625 1.8975 0.70125 2.875 1.0625 C2.215 1.7225 1.555 2.3825 0.875 3.0625 C-2.05953261 2.69568342 -2.98937246 2.19812754 -5.125 0.0625 C-3.125 -0.9375 -3.125 -0.9375 0 0 Z " fill="#3A3A3E" transform="translate(99.125,170.9375)"/>
<path d="M0 0 C0 0.99 0 1.98 0 3 C-2.31 3 -4.62 3 -7 3 C-7 2.34 -7 1.68 -7 1 C-4.53721199 -0.231394 -2.7204945 -0.07159196 0 0 Z " fill="#4D4B51" transform="translate(450,157)"/>
<path d="M0 0 C0 1.65 0 3.3 0 5 C-1.98 5 -3.96 5 -6 5 C-5.1875 3.0625 -5.1875 3.0625 -4 1 C-1 0 -1 0 0 0 Z " fill="#423D42" transform="translate(404,155)"/>
<path d="M0 0 C0.66 0.66 1.32 1.32 2 2 C3.31747324 2.69748583 4.64914193 3.36959957 6 4 C5.01 4.33 4.02 4.66 3 5 C2.67 5.66 2.34 6.32 2 7 C1.34 7 0.68 7 0 7 C0 4.69 0 2.38 0 0 Z " fill="#2D2B2D" transform="translate(248,130)"/>
<path d="M0 0 C1.32 0 2.64 0 4 0 C4 1.98 4 3.96 4 6 C3.01 6 2.02 6 1 6 C0.67 4.02 0.34 2.04 0 0 Z " fill="#363335" transform="translate(200,117)"/>
</svg>
